HIERARCHY
ROOT mixamorig:Hips
{
	OFFSET 0.000000 104.274902 0.000000
	CHANNELS 6 Xposition Yposition Zposition Xrotation Yrotation Zrotation
	JOINT mixamorig:Spine
	{
		OFFSET 0.000000 10.181549 0.131524
		CHANNELS 6 Xposition Yposition Zposition Xrotation Yrotation Zrotation
		JOINT mixamorig:Spine1
		{
			OFFSET 0.000000 9.893990 -1.470706
			CHANNELS 3 Xrotation Yrotation Zrotation
			JOINT mixamorig:Spine2
			{
				OFFSET 0.000000 9.220787 -1.370637
				CHANNELS 3 Xrotation Yrotation Zrotation
				JOINT mixamorig:Neck
				{
					OFFSET 0.000000 16.740372 -2.049022
					CHANNELS 6 Xposition Yposition Zposition Xrotation Yrotation Zrotation
					JOINT mixamorig:Head
					{
						OFFSET 0.000000 9.617859 1.684976
						CHANNELS 6 Xposition Yposition Zposition Xrotation Yrotation Zrotation
						JOINT mixamorig:HeadTop_End
						{
							OFFSET 0.000000 22.037384 7.501072
							CHANNELS 6 Xposition Yposition Zposition Xrotation Yrotation Zrotation
							End Site
							{
								OFFSET 0.000000 23.106567 -2.828246
							}
						}
					}
				}
				JOINT mixamorig:RightShoulder
				{
					OFFSET -4.570000 11.014877 -2.160840
					CHANNELS 6 Xposition Yposition Zposition Xrotation Yrotation Zrotation
					JOINT mixamorig:RightArm
					{
						OFFSET -10.592867 -0.524796 -2.232105
						CHANNELS 3 Xrotation Yrotation Zrotation
						JOINT mixamorig:RightForeArm
						{
							OFFSET -27.841497 0.000000 -0.000002
							CHANNELS 3 Xrotation Yrotation Zrotation
							JOINT mixamorig:RightHand
							{
								OFFSET -28.328812 0.000000 -0.000001
								CHANNELS 3 Xrotation Yrotation Zrotation
								JOINT mixamorig:RightHandThumb1
								{
									OFFSET -2.464798 -1.573990 2.681911
									CHANNELS 6 Xposition Yposition Zposition Xrotation Yrotation Zrotation
									JOINT mixamorig:RightHandThumb2
									{
										OFFSET -3.244781 -1.873383 1.873376
										CHANNELS 3 Xrotation Yrotation Zrotation
										JOINT mixamorig:RightHandThumb3
										{
											OFFSET -2.646263 -1.527817 1.527818
											CHANNELS 6 Xposition Yposition Zposition Xrotation Yrotation Zrotation
											JOINT mixamorig:RightHandThumb4
											{
												OFFSET -1.994591 -1.151581 1.151575
												CHANNELS 6 Xposition Yposition Zposition Xrotation Yrotation Zrotation
												End Site
												{
													OFFSET -1.860176 -1.142715 1.365483
												}
											}
										}
									}
								}
								JOINT mixamorig:RightHandIndex1
								{
									OFFSET -9.108299 -0.517883 2.259803
									CHANNELS 6 Xposition Yposition Zposition Xrotation Yrotation Zrotation
									JOINT mixamorig:RightHandIndex2
									{
										OFFSET -3.699997 0.000000 0.000000
										CHANNELS 3 Xrotation Yrotation Zrotation
										JOINT mixamorig:RightHandIndex3
										{
											OFFSET -2.850006 0.000000 0.000000
											CHANNELS 3 Xrotation Yrotation Zrotation
											JOINT mixamorig:RightHandIndex4
											{
												OFFSET -2.772194 0.000000 0.000000
												CHANNELS 3 Xrotation Yrotation Zrotation
												End Site
												{
													OFFSET -2.772202 0.000000 -0.000484
												}
											}
										}
									}
								}
								JOINT mixamorig:RightHandMiddle1
								{
									OFFSET -9.532501 0.000000 -0.000000
									CHANNELS 6 Xposition Yposition Zposition Xrotation Yrotation Zrotation
									JOINT mixamorig:RightHandMiddle2
									{
										OFFSET -3.699997 0.000000 0.000000
										CHANNELS 3 Xrotation Yrotation Zrotation
										JOINT mixamorig:RightHandMiddle3
										{
											OFFSET -2.949997 0.000000 0.000000
											CHANNELS 3 Xrotation Yrotation Zrotation
											JOINT mixamorig:RightHandMiddle4
											{
												OFFSET -2.946594 0.000000 0.000000
												CHANNELS 3 Xrotation Yrotation Zrotation
												End Site
												{
													OFFSET -2.946602 0.000000 -0.000982
												}
											}
										}
									}
								}
								JOINT mixamorig:RightHandRing1
								{
									OFFSET -9.103600 -0.043106 -1.865100
									CHANNELS 6 Xposition Yposition Zposition Xrotation Yrotation Zrotation
									JOINT mixamorig:RightHandRing2
									{
										OFFSET -3.379303 0.000000 0.000000
										CHANNELS 3 Xrotation Yrotation Zrotation
										JOINT mixamorig:RightHandRing3
										{
											OFFSET -2.889694 0.000000 0.000000
											CHANNELS 3 Xrotation Yrotation Zrotation
											JOINT mixamorig:RightHandRing4
											{
												OFFSET -2.638802 0.000000 0.000000
												CHANNELS 3 Xrotation Yrotation Zrotation
												End Site
												{
													OFFSET -2.638802 0.000000 0.004218
												}
											}
										}
									}
								}
								JOINT mixamorig:RightHandPinky1
								{
									OFFSET -8.076698 -0.486725 -3.806299
									CHANNELS 6 Xposition Yposition Zposition Xrotation Yrotation Zrotation
									JOINT mixamorig:RightHandPinky2
									{
										OFFSET -3.600006 0.000000 0.000000
										CHANNELS 3 Xrotation Yrotation Zrotation
										JOINT mixamorig:RightHandPinky3
										{
											OFFSET -2.099998 0.000000 0.000000
											CHANNELS 3 Xrotation Yrotation Zrotation
											JOINT mixamorig:RightHandPinky4
											{
												OFFSET -2.115791 0.000000 0.000000
												CHANNELS 3 Xrotation Yrotation Zrotation
												End Site
												{
													OFFSET -2.115799 0.000000 0.000174
												}
											}
										}
									}
								}
							}
						}
					}
				}
				JOINT mixamorig:LeftShoulder
				{
					OFFSET 4.570400 11.014679 -2.160816
					CHANNELS 6 Xposition Yposition Zposition Xrotation Yrotation Zrotation
					JOINT mixamorig:LeftArm
					{
						OFFSET 10.592373 -0.524597 -2.232116
						CHANNELS 3 Xrotation Yrotation Zrotation
						JOINT mixamorig:LeftForeArm
						{
							OFFSET 27.841488 0.000000 0.000001
							CHANNELS 3 Xrotation Yrotation Zrotation
							JOINT mixamorig:LeftHand
							{
								OFFSET 28.328808 0.000000 -0.000000
								CHANNELS 3 Xrotation Yrotation Zrotation
								JOINT mixamorig:LeftHandThumb1
								{
									OFFSET 2.466103 -1.576202 2.681698
									CHANNELS 6 Xposition Yposition Zposition Xrotation Yrotation Zrotation
									JOINT mixamorig:LeftHandThumb2
									{
										OFFSET 3.243317 -1.872528 1.872530
										CHANNELS 3 Xrotation Yrotation Zrotation
										JOINT mixamorig:LeftHandThumb3
										{
											OFFSET 2.647881 -1.528763 1.528754
											CHANNELS 6 Xposition Yposition Zposition Xrotation Yrotation Zrotation
											JOINT mixamorig:LeftHandThumb4
											{
												OFFSET 1.998924 -1.154083 1.154080
												CHANNELS 6 Xposition Yposition Zposition Xrotation Yrotation Zrotation
												End Site
												{
													OFFSET 1.884041 -1.149155 1.337651
												}
											}
										}
									}
								}
								JOINT mixamorig:LeftHandIndex1
								{
									OFFSET 9.109299 -0.518005 2.259900
									CHANNELS 6 Xposition Yposition Zposition Xrotation Yrotation Zrotation
									JOINT mixamorig:LeftHandIndex2
									{
										OFFSET 3.699997 0.000000 0.000000
										CHANNELS 3 Xrotation Yrotation Zrotation
										JOINT mixamorig:LeftHandIndex3
										{
											OFFSET 2.850006 0.000000 0.000000
											CHANNELS 3 Xrotation Yrotation Zrotation
											JOINT mixamorig:LeftHandIndex4
											{
												OFFSET 2.774895 0.000000 0.000000
												CHANNELS 3 Xrotation Yrotation Zrotation
												End Site
												{
													OFFSET 2.774902 0.000000 -0.000072
												}
											}
										}
									}
								}
								JOINT mixamorig:LeftHandMiddle1
								{
									OFFSET 9.533401 0.000000 0.000000
									CHANNELS 6 Xposition Yposition Zposition Xrotation Yrotation Zrotation
									JOINT mixamorig:LeftHandMiddle2
									{
										OFFSET 3.699997 0.000000 0.000000
										CHANNELS 3 Xrotation Yrotation Zrotation
										JOINT mixamorig:LeftHandMiddle3
										{
											OFFSET 2.949997 0.000000 0.000000
											CHANNELS 3 Xrotation Yrotation Zrotation
											JOINT mixamorig:LeftHandMiddle4
											{
												OFFSET 2.952896 0.000000 0.000000
												CHANNELS 3 Xrotation Yrotation Zrotation
												End Site
												{
													OFFSET 2.952904 0.000000 0.000165
												}
											}
										}
									}
								}
								JOINT mixamorig:LeftHandRing1
								{
									OFFSET 9.104500 -0.042999 -1.865101
									CHANNELS 6 Xposition Yposition Zposition Xrotation Yrotation Zrotation
									JOINT mixamorig:LeftHandRing2
									{
										OFFSET 3.149994 0.000000 0.000000
										CHANNELS 3 Xrotation Yrotation Zrotation
										JOINT mixamorig:LeftHandRing3
										{
											OFFSET 2.950005 0.000000 0.000000
											CHANNELS 3 Xrotation Yrotation Zrotation
											JOINT mixamorig:LeftHandRing4
											{
												OFFSET 2.644302 0.000000 0.000000
												CHANNELS 3 Xrotation Yrotation Zrotation
												End Site
												{
													OFFSET 2.644302 0.000000 0.000083
												}
											}
										}
									}
								}
								JOINT mixamorig:LeftHandPinky1
								{
									OFFSET 8.077805 -0.486893 -3.806302
									CHANNELS 6 Xposition Yposition Zposition Xrotation Yrotation Zrotation
									JOINT mixamorig:LeftHandPinky2
									{
										OFFSET 3.600006 0.000000 0.000000
										CHANNELS 3 Xrotation Yrotation Zrotation
										JOINT mixamorig:LeftHandPinky3
										{
											OFFSET 2.099998 0.000000 0.000000
											CHANNELS 3 Xrotation Yrotation Zrotation
											JOINT mixamorig:LeftHandPinky4
											{
												OFFSET 2.125496 0.000000 0.000000
												CHANNELS 3 Xrotation Yrotation Zrotation
												End Site
												{
													OFFSET 2.125504 0.000000 -0.001254
												}
											}
										}
									}
								}
							}
						}
					}
				}
			}
		}
	}
	JOINT mixamorig:RightUpLeg
	{
		OFFSET -8.207800 -6.751701 -1.599544
		CHANNELS 6 Xposition Yposition Zposition Xrotation Yrotation Zrotation
		JOINT mixamorig:RightLeg
		{
			OFFSET 0.000004 -44.370152 0.345934
			CHANNELS 3 Xrotation Yrotation Zrotation
			JOINT mixamorig:RightFoot
			{
				OFFSET 0.000004 -44.423664 -3.043535
				CHANNELS 3 Xrotation Yrotation Zrotation
				JOINT mixamorig:RightToeBase
				{
					OFFSET 0.000001 -8.728691 10.710592
					CHANNELS 3 Xrotation Yrotation Zrotation
					JOINT mixamorig:RightToe_End
					{
						OFFSET 0.000000 -0.000665 9.278101
						CHANNELS 3 Xrotation Yrotation Zrotation
						End Site
						{
							OFFSET 0.000000 -0.000665 9.278103
						}
					}
				}
			}
		}
	}
	JOINT mixamorig:LeftUpLeg
	{
		OFFSET 8.207800 -6.751701 -1.599544
		CHANNELS 6 Xposition Yposition Zposition Xrotation Yrotation Zrotation
		JOINT mixamorig:LeftLeg
		{
			OFFSET 0.000004 -44.370037 0.346940
			CHANNELS 3 Xrotation Yrotation Zrotation
			JOINT mixamorig:LeftFoot
			{
				OFFSET 0.000004 -44.423611 -3.044388
				CHANNELS 3 Xrotation Yrotation Zrotation
				JOINT mixamorig:LeftToeBase
				{
					OFFSET 0.000001 -8.728690 10.710592
					CHANNELS 3 Xrotation Yrotation Zrotation
					JOINT mixamorig:LeftToe_End
					{
						OFFSET 0.000000 -0.000680 9.278101
						CHANNELS 3 Xrotation Yrotation Zrotation
						End Site
						{
							OFFSET 0.000000 -0.000680 9.278101
						}
					}
				}
			}
		}
	}
}
MOTION
Frames: 4
Frame Time: 0.033333
0.478676 101.630463 1.555309 -0.893322 1.577724 -5.359574 0.000002 10.181545 0.131524 1.298048 -1.197521 3.017259 0.728743 0.264196 5.944686 0.710788 0.781492 5.851999 0.000001 16.740395 -2.049021 1.045307 -0.304693 -2.163987 -0.000002 9.617852 1.684976 1.584930 0.544179 -8.140495 -0.000000 22.037384 7.501071 -0.000000 0.000000 -0.000000 -4.569999 11.014892 -2.160840 4.508129 3.324379 5.471577 -1.219694 0.655839 67.345412 -0.000008 17.736782 0.000006 -11.193109 -9.123290 10.139283 -2.464770 -1.573991 2.681904 18.491272 0.461457 -10.916083 1.284026 -32.757608 3.089010 -2.646278 -1.527810 1.527815 2.008720 -8.430466 1.114709 -1.994578 -1.151589 1.151573 0.000003 -0.000002 -0.000002 -9.108294 -0.517874 2.259803 0.339564 -4.671351 7.844290 0.387031 -2.823581 20.566246 -0.193128 -0.216343 13.843935 0.000000 -0.000000 0.000002 -9.532476 0.000012 0.000001 0.912591 -8.769265 15.831760 0.919060 -3.991130 33.400417 0.216469 -1.688826 15.898049 0.000000 -0.000000 0.000001 -9.103594 -0.043107 -1.865099 2.555823 -11.673031 26.909197 1.710651 -3.886778 40.215471 -0.157966 0.035279 17.815348 -0.000001 -0.000000 -0.000000 -8.076685 -0.486720 -3.806301 5.576071 -16.029172 36.940644 1.378690 -4.077644 45.645604 -0.727747 -0.247553 22.122739 0.000001 0.000001 -0.000001 4.570405 11.014677 -2.160817 3.582356 -13.764044 -5.044473 4.032794 3.514252 -83.678341 -0.000010 -14.506753 0.000012 -27.592619 3.698768 -9.416213 2.466087 -1.576205 2.681704 18.491373 -0.461328 10.916043 1.284030 32.757608 -3.089005 2.647888 -1.528769 1.528743 2.117138 9.311164 -0.358617 1.998921 -1.154068 1.154076 0.000000 -0.000000 -0.000002 9.109291 -0.518010 2.259899 0.339551 4.671364 -7.844245 0.387018 2.823622 -20.566237 0.034630 0.816855 -10.169826 -0.000002 -0.000000 -0.000005 9.533387 0.000006 0.000001 0.912571 8.769289 -15.831716 0.919041 3.991193 -33.400414 0.170553 1.488897 -12.264409 0.000000 -0.000001 -0.000001 9.104483 -0.042990 -1.865102 2.555799 11.673077 -26.909188 1.710609 3.886852 -40.215454 0.544833 1.835106 -19.344142 -0.000001 -0.000001 -0.000000 8.077786 -0.486899 -3.806301 5.576041 16.029240 -36.940610 1.378642 4.077719 -45.645608 0.486563 2.853427 -20.524720 0.000001 0.000000 0.000000 -8.207799 -6.751709 -1.599544 -1.604758 -4.967097 10.554401 12.448039 -5.083515 3.268302 -9.846520 1.010042 -7.756454 -0.548653 0.000002 0.000001 -0.000000 0.000001 -0.000000 8.207802 -6.751701 -1.599544 -19.571431 10.808279 15.940024 22.074461 9.497762 2.339093 -1.499893 3.351773 -8.783161 -0.446334 -0.000003 0.000003 0.000000 0.000000 0.000000 
0.573983 101.629028 1.533619 -0.948881 1.708929 -5.178612 0.000001 10.181551 0.131525 1.335714 -1.137020 3.004811 0.736585 0.278483 5.890436 0.719130 0.791008 5.798555 -0.000002 16.740368 -2.049016 1.090931 -0.324760 -2.163637 0.000002 9.617872 1.684974 1.718457 0.451592 -8.065249 -0.000000 22.037369 7.501075 -0.000000 -0.000000 0.000000 -4.570002 11.014866 -2.160838 4.494372 3.410802 5.447592 -1.041172 0.047016 67.114532 -0.000007 17.656058 0.000033 -10.540726 -9.725077 10.324379 -2.464813 -1.573990 2.681908 18.441840 0.438118 -10.907740 1.293245 -32.714639 3.078978 -2.646262 -1.527825 1.527815 1.991989 -8.434611 1.129579 -1.994571 -1.151587 1.151567 0.000001 -0.000003 0.000001 -9.108306 -0.517871 2.259803 0.339673 -4.672146 7.852195 0.390963 -2.834031 20.676933 -0.193128 -0.216342 13.843935 -0.000000 0.000000 0.000003 -9.532496 -0.000005 0.000001 0.915604 -8.773673 15.886134 0.922310 -3.996222 33.460882 0.216469 -1.688826 15.898051 -0.000001 -0.000001 -0.000002 -9.103607 -0.043105 -1.865104 2.561412 -11.675485 26.964134 1.716786 -3.892713 40.301118 -0.157967 0.035279 17.815346 -0.000000 0.000000 -0.000000 -8.076694 -0.486715 -3.806301 5.580332 -16.034605 37.010008 1.386018 -4.086106 45.757162 -0.727741 -0.247565 22.122740 -0.000001 0.000000 0.000000 4.570398 11.014684 -2.160810 3.568920 -13.852912 -4.956995 3.033763 3.264586 -83.292388 0.000019 -14.289726 0.000019 -26.434384 3.892207 -9.724223 2.466100 -1.576198 2.681701 18.452641 -0.701628 10.843244 1.410273 33.078992 -3.090109 2.647883 -1.528759 1.528745 2.045964 9.412866 -0.230001 1.998921 -1.154068 1.154084 0.000000 -0.000000 -0.000002 9.109293 -0.518017 2.259900 0.394297 4.756385 -8.583695 0.418374 2.905232 -21.432881 0.036416 0.829520 -10.296107 -0.000000 -0.000001 -0.000001 9.533389 0.000002 0.000000 0.958605 8.844631 -16.573843 0.965903 4.063935 -34.268148 0.173621 1.501160 -12.390835 -0.000000 -0.000001 0.000003 9.104488 -0.043009 -1.865104 2.637317 11.715649 -27.665307 1.773377 3.946772 -41.085914 0.550145 1.846479 -19.470650 -0.000000 -0.000000 0.000000 8.077808 -0.486904 -3.806299 5.612881 16.070131 -37.699403 1.436639 4.143778 -46.520927 0.491799 2.865035 -20.651337 0.000001 0.000000 -0.000002 -8.207800 -6.751697 -1.599544 -1.771936 -4.923991 10.316012 12.824126 -5.091594 3.257973 -10.038229 0.848409 -7.681429 -0.510699 -0.000002 -0.000001 0.000000 0.000001 0.000000 8.207799 -6.751695 -1.599543 -19.487503 10.858753 15.639876 22.047511 9.423463 2.397229 -1.462718 3.358503 -8.714471 -0.484617 -0.000009 0.000001 -0.000000 -0.000000 0.000000 
0.833792 101.626434 1.476485 -1.096246 2.085801 -4.697543 0.000000 10.181546 0.131522 1.437231 -0.970396 2.969048 0.758200 0.318566 5.745180 0.742114 0.818417 5.655431 0.000001 16.740362 -2.049020 1.206642 -0.385499 -2.160364 0.000000 9.617818 1.684978 2.067128 0.175236 -7.856008 0.000000 22.037369 7.501073 -0.000000 -0.000000 0.000000 -4.570000 11.014882 -2.160839 4.458227 3.640838 5.386133 -0.575404 -1.546334 66.530803 0.000000 17.458244 0.000030 -8.760975 -11.340360 10.917929 -2.464815 -1.574002 2.681905 18.305368 0.373738 -10.884896 1.318660 -32.596111 3.051156 -2.646262 -1.527814 1.527815 1.945838 -8.446069 1.170645 -1.994579 -1.151587 1.151566 0.000001 0.000005 0.000001 -9.108293 -0.517883 2.259803 0.339972 -4.674343 7.874048 0.401939 -2.862839 20.982503 -0.193128 -0.216343 13.843935 0.000000 -0.000000 0.000000 -9.532504 -0.000002 0.000001 0.923946 -8.785819 16.036196 0.931238 -4.010251 33.627726 0.216468 -1.688825 15.898046 0.000001 0.000001 -0.000005 -9.103603 -0.043111 -1.865101 2.576859 -11.682229 27.115737 1.733768 -3.909062 40.537548 -0.157967 0.035279 17.815346 0.000000 0.000000 0.000000 -8.076707 -0.486714 -3.806299 5.592115 -16.049587 37.201380 1.406356 -4.109400 46.065063 -0.727762 -0.247564 22.122744 -0.000000 -0.000000 -0.000002 4.570401 11.014665 -2.160813 3.534454 -14.092943 -4.717311 0.422122 2.468201 -82.274300 -0.000001 -13.740621 -0.000024 -23.356534 4.329301 -10.608892 2.466107 -1.576200 2.681700 18.352013 -1.344730 10.651709 1.749201 33.935764 -3.097361 2.647903 -1.528759 1.528755 1.857262 9.678986 0.112292 1.998921 -1.154083 1.154076 -0.000001 0.000003 -0.000002 9.109304 -0.518014 2.259901 0.545938 4.972119 -10.566418 0.508679 3.121907 -23.760480 0.041447 0.863587 -10.635381 -0.000000 -0.000002 0.000005 9.533401 -0.000010 0.000002 1.086119 9.039034 -18.563363 1.097196 4.255684 -36.599241 0.181955 1.534039 -12.730351 -0.000000 0.000000 0.000002 9.104485 -0.042997 -1.865104 2.856971 11.822227 -29.688080 1.946425 4.102905 -43.424458 0.564495 1.876958 -19.810385 0.000001 -0.000000 -0.000001 8.077806 -0.486899 -3.806300 5.714585 16.182241 -39.726078 1.597063 4.316412 -48.868146 0.505979 2.896137 -20.991340 0.000000 -0.000000 -0.000002 -8.207800 -6.751709 -1.599544 -2.190695 -4.808753 9.679895 13.777088 -5.148928 3.234880 -10.523897 0.427749 -7.474240 -0.416278 0.000000 -0.000001 0.000000 0.000000 0.000000 8.207800 -6.751698 -1.599544 -19.263722 10.987388 14.831074 21.972239 9.205349 2.557372 -1.367238 3.374043 -8.524383 -0.587405 0.000003 0.000001 0.000000 -0.000002 0.000000 
1.218885 101.625084 1.395979 -1.306546 2.683160 -4.008157 0.000001 10.181565 0.131524 1.585469 -0.719979 2.912476 0.790717 0.380273 5.535161 0.776683 0.862017 5.448444 -0.000002 16.740368 -2.049022 1.360704 -0.487719 -2.150833 0.000001 9.617856 1.684974 2.553196 -0.282700 -7.537272 -0.000000 22.037384 7.501074 -0.000001 -0.000000 0.000000 -4.569999 11.014883 -2.160842 4.407488 3.970661 5.302933 0.067375 -3.776351 65.765938 -0.000004 17.209997 0.000014 -6.092790 -13.662295 12.017408 -2.464805 -1.573984 2.681911 18.099740 0.276639 -10.850596 1.356987 -32.417594 3.009053 -2.646280 -1.527816 1.527819 1.876307 -8.463482 1.232500 -1.994590 -1.151587 1.151568 0.000003 0.000001 -0.000000 -9.108304 -0.517877 2.259803 0.340419 -4.677644 7.906979 0.418787 -2.906150 21.443114 -0.193127 -0.216342 13.843935 -0.000001 -0.000001 0.000002 -9.532504 0.000015 -0.000000 0.936599 -8.804068 16.262404 0.944788 -4.031350 33.879207 0.216471 -1.688823 15.898046 0.000001 0.000000 0.000001 -9.103610 -0.043105 -1.865099 2.600161 -11.692287 27.344239 1.759481 -3.933552 40.893883 -0.157966 0.035280 17.815346 -0.000003 0.000001 -0.000000 -8.076695 -0.486716 -3.806297 5.610045 -16.072127 37.489952 1.437228 -4.144299 46.529069 -0.727752 -0.247551 22.122733 0.000001 0.000000 -0.000001 4.570397 11.014683 -2.160816 3.488754 -14.444443 -4.359041 -3.204031 1.029161 -80.878592 0.000021 -13.012313 0.000009 -18.956604 4.761645 -12.019249 2.466086 -1.576207 2.681707 18.211888 -2.273964 10.381545 2.242570 35.166752 -3.118711 2.647881 -1.528765 1.528750 1.587439 10.050546 0.602916 1.998913 -1.154067 1.154077 0.000001 0.000004 0.000001 9.109283 -0.518018 2.259902 0.776807 5.255236 -13.439535 0.655319 3.429539 -27.140802 0.049081 0.912973 -11.128093 0.000000 0.000000 0.000000 9.533389 0.000019 0.000002 1.280740 9.303186 -21.445609 1.301578 4.524267 -39.986045 0.194413 1.581703 -13.223410 0.000000 -0.000000 0.000000 9.104475 -0.043000 -1.865101 3.177734 11.958477 -32.609287 2.208825 4.316820 -46.822224 0.585663 1.921051 -20.303711 -0.000000 -0.000000 0.000000 8.077782 -0.486898 -3.806301 5.871142 16.351493 -42.646694 1.841717 4.554488 -52.269481 0.526904 2.941189 -21.485132 -0.000000 -0.000001 0.000001 -8.207800 -6.751712 -1.599544 -2.734670 -4.643223 8.761703 15.039800 -5.304676 3.215486 -11.164663 -0.155437 -7.161814 -0.294585 0.000001 -0.000000 -0.000000 -0.000001 -0.000000 8.207798 -6.751698 -1.599544 -18.950131 11.158424 13.651319 21.878151 8.853219 2.800207 -1.282459 3.394384 -8.237501 -0.736628 -0.000018 -0.000000 -0.000000 -0.000001 0.000000 
